<?xml version="1.0" encoding="UTF-8" standalone="no"?>
<svg
   width="100"
   height="100"
   viewBox="0 0 100 100"
   fill="none"
   version="1.1"
   id="svg1"
   sodipodi:docname="logo X github.svg"
   inkscape:version="1.4.2 (2aeb623e1d, 2025-05-12)"
   xmlns:inkscape="http://www.inkscape.org/namespaces/inkscape"
   xmlns:sodipodi="http://sodipodi.sourceforge.net/DTD/sodipodi-0.dtd"
   xmlns="http://www.w3.org/2000/svg"
   xmlns:svg="http://www.w3.org/2000/svg">
  <defs
     id="defs1" />
  <sodipodi:namedview
     id="namedview1"
     pagecolor="#ffffff"
     bordercolor="#000000"
     borderopacity="0.25"
     inkscape:showpageshadow="2"
     inkscape:pageopacity="0.0"
     inkscape:pagecheckerboard="0"
     inkscape:deskcolor="#d1d1d1"
     showgrid="false"
     inkscape:zoom="3.125"
     inkscape:cx="53.12"
     inkscape:cy="29.44"
     inkscape:window-width="1920"
     inkscape:window-height="1011"
     inkscape:window-x="1920"
     inkscape:window-y="32"
     inkscape:window-maximized="1"
     inkscape:current-layer="svg1" />
  <path
     fill-rule="evenodd"
     clip-rule="evenodd"
     d="m 50,1.2334924 c -27.625,0 -50,22.3749996 -50,49.9999996 0,22.125 14.3125,40.8125 34.1875,47.4375 2.5,0.4375 3.4375,-1.0625 3.4375,-2.375 0,-1.1875 -0.0625,-5.125 -0.0625,-9.3125 -12.5625,2.3125 -15.8125,-3.0625 -16.8125,-5.875 -0.5625,-1.4375 -3,-5.875 -5.125,-7.0625 -1.75,-0.9375 -4.25,-3.25 -0.0625,-3.3125 3.9375,-0.0625 6.75,3.625 7.6875,5.125 4.5,7.5625 11.6875,5.4375 14.5625,4.125 0.4375,-3.25 1.75,-5.4375 3.1875,-6.6875 -11.125,-1.25 -22.75,-5.5625 -22.75,-24.6875 0,-5.4375 1.9375,-9.9375 5.125,-13.4375 -0.5,-1.25 -2.25,-6.375 0.5,-13.25 0,0 4.1875,-1.3125 13.75,5.125 4,-1.125 8.25,-1.6875 12.5,-1.6875 4.25,0 8.5,0.5625 12.5,1.6875 9.5625,-6.5 13.75,-5.125 13.75,-5.125 2.75,6.875 1,12 0.5,13.25 3.1875,3.5 5.125,7.9375 5.125,13.4375 0,19.1875 -11.6875,23.4375 -22.8125,24.6875 1.8125,1.5625 3.375,4.5625 3.375,9.25 0,6.6875 -0.0625,12.0625 -0.0625,13.75 0,1.3125 0.9375,2.875 3.4375,2.375 19.75,-6.625 34.0625,-25.375 34.0625,-47.4375 0,-27.625 -22.375,-49.9999996 -50,-49.9999996 z"
     fill="#1b1f23"
     id="path1"
     style="stroke-width:6.25;fill:#ffffff" />
</svg>
