<?xml version="1.0" encoding="UTF-8" standalone="no"?>
<!-- Uploaded to: SVG Repo, www.svgrepo.com, Generator: SVG Repo Mixer Tools -->

<svg
   height="100.00002"
   width="100"
   version="1.1"
   id="Layer_1"
   viewBox="0 0 47.75 47.750011"
   xml:space="preserve"
   sodipodi:docname="logo linkedin.svg"
   inkscape:version="1.4.2 (2aeb623e1d, 2025-05-12)"
   xmlns:inkscape="http://www.inkscape.org/namespaces/inkscape"
   xmlns:sodipodi="http://sodipodi.sourceforge.net/DTD/sodipodi-0.dtd"
   xmlns="http://www.w3.org/2000/svg"
   xmlns:svg="http://www.w3.org/2000/svg"><defs
   id="defs1" /><sodipodi:namedview
   id="namedview1"
   pagecolor="#ffffff"
   bordercolor="#000000"
   borderopacity="0.25"
   inkscape:showpageshadow="2"
   inkscape:pageopacity="0.0"
   inkscape:pagecheckerboard="0"
   inkscape:deskcolor="#d1d1d1"
   showgrid="false"
   inkscape:zoom="4"
   inkscape:cx="10.5"
   inkscape:cy="43"
   inkscape:window-width="1920"
   inkscape:window-height="1011"
   inkscape:window-x="1920"
   inkscape:window-y="32"
   inkscape:window-maximized="1"
   inkscape:current-layer="Layer_1" />
<path
   id="rect1"
   style="fill:#ffffff;stroke:#30531b;stroke-width:0"
   d="M 6.6786757,4.8227692e-7 C 3.0775357,4.8227692e-7 0.15805568,2.9193405 0.15805568,6.5204805 c 0,3.6011295 2.91948002,6.5204695 6.52062002,6.5204695 3.6013003,0 6.5204703,-2.91934 6.5204703,-6.5204695 0,-3.60114 -2.91933,-6.52048001772308 -6.5204703,-6.52048001772308 z M 35.866026,15.27042 c -5.32578,0 -7.82722,1.9495 -9.51034,4.47538 v -2.51015 c 0,-0.81871 -0.66381,-1.48252 -1.48252,-1.48252 h -7.12341 c -0.81871,0 -1.48253,0.66381 -1.48253,1.48252 v 29.03183 c 0,0.81871 0.66382,1.48253 1.48253,1.48253 h 7.12341 c 0.81887,0 1.48252,-0.66382 1.48252,-1.48253 v -15.5659 c 0.18488,-2.09151 1.10563,-6.75195 5.64478,-6.75195 5.85186,0 5.26135,6.8089 5.26135,8.82216 v 13.49569 c 0,0.81871 0.66382,1.48253 1.48253,1.48253 h 7.36506 c 0.81871,0 1.48253,-0.66382 1.48253,-1.48253 V 32.34232 c 0,-6.0539 0.0676,-17.0719 -11.72591,-17.0719 z M 3.2467757,15.75313 c -0.89055,0 -1.61233,0.72192 -1.61233,1.61247 v 28.77208 c 0,0.89055 0.72178,1.61233 1.61233,1.61233 h 6.8636603 c 0.89054,0 1.61247,-0.72178 1.61247,-1.61233 V 17.3656 c 0,-0.89055 -0.72193,-1.61247 -1.61247,-1.61247 z" />
</svg>
